<svg width="8" height="6" viewBox="0 0 8 6" fill="none" xmlns="http://www.w3.org/2000/svg">
<path d="M4.47223 4.88663L7.29889 2.05996C7.36138 1.99799 7.41098 1.92425 7.44482 1.84301C7.47867 1.76177 7.49609 1.67464 7.49609 1.58663C7.49609 1.49862 7.47867 1.41148 7.44482 1.33024C7.41098 1.249 7.36138 1.17527 7.29889 1.1133C7.17399 0.989128 7.00502 0.919434 6.82889 0.919434C6.65277 0.919434 6.4838 0.989128 6.3589 1.1133L3.9989 3.4733L1.6389 1.1133C1.51399 0.989128 1.34502 0.919433 1.16889 0.919433C0.992771 0.919433 0.823803 0.989128 0.698895 1.11329C0.637107 1.17559 0.588224 1.24947 0.555048 1.33069C0.521872 1.41192 0.505055 1.49889 0.505562 1.58663C0.505055 1.67437 0.521872 1.76134 0.555048 1.84257C0.588224 1.92379 0.637107 1.99767 0.698895 2.05996L3.52556 4.88663C3.58754 4.94911 3.66127 4.99871 3.74251 5.03256C3.82375 5.0664 3.91089 5.08383 3.99889 5.08383C4.0869 5.08383 4.17404 5.0664 4.25528 5.03256C4.33652 4.99871 4.41025 4.94911 4.47223 4.88663Z" fill="#252A3B"/>
</svg>
